<svg width="75" height="36" viewBox="0 0 75 36" fill="none" xmlns="http://www.w3.org/2000/svg">
<path d="M61.3099 21.8626C61.2423 21.8653 61.1749 21.8547 61.1114 21.8312C61.048 21.8078 60.9897 21.772 60.9401 21.7259C60.8904 21.6798 60.8502 21.6243 60.8219 21.5625C60.7936 21.5008 60.7776 21.4341 60.775 21.3662V12.8859C60.8069 12.7735 60.8744 12.6746 60.9672 12.6043C61.06 12.5339 61.1731 12.4958 61.2893 12.4958C61.4055 12.4958 61.5186 12.5339 61.6114 12.6043C61.7042 12.6746 61.7716 12.7735 61.8036 12.8859V21.3972C61.7982 21.5325 61.7403 21.6603 61.6422 21.7532C61.5441 21.846 61.4137 21.8964 61.279 21.8936L61.3099 21.8626ZM62.3076 10.8899H60.3121C58.6253 10.8899 58.5327 12.255 58.5327 13.1341V21.2007C58.5327 22.0798 58.6253 23.4449 60.3121 23.4449H62.2973C63.9739 23.4449 64.0767 22.0798 64.0767 21.2007V13.1341C64.0767 12.255 63.9739 10.8899 62.2973 10.8899" fill="white"/>
<path d="M24.8882 10.8899H29.4653V12.4515H27.2848V23.4449H24.8882V10.8899Z" fill="white"/>
<path d="M29.8149 23.4449H32.1601L32.3864 20.1045H33.5281L33.7441 23.4449H36.1509L34.8447 10.8899H31.0698L29.8149 23.4449ZM32.4789 18.76L32.8904 12.4722H33.0652L33.4767 18.76H32.4789Z" fill="white"/>
<path d="M39.5353 19.0496V21.4179C39.5311 21.4698 39.5374 21.5221 39.554 21.5714C39.5706 21.6208 39.597 21.6663 39.6317 21.705C39.6664 21.7437 39.7086 21.7749 39.7556 21.7967C39.8027 21.8185 39.8537 21.8303 39.9056 21.8316C40.0101 21.8262 40.1085 21.7799 40.1796 21.7026C40.2507 21.6253 40.289 21.5231 40.2861 21.4179V18.4911C40.2861 18.0982 40.2141 17.6741 39.3193 17.6741H38.3524V16.2883H39.381C40.0598 16.2883 40.3067 16.1229 40.3067 15.3576V12.8548C40.3081 12.8032 40.2993 12.7518 40.2809 12.7036C40.2625 12.6554 40.2349 12.6113 40.1995 12.5739C40.1642 12.5364 40.1219 12.5063 40.0749 12.4853C40.028 12.4643 39.9775 12.4528 39.9261 12.4515C39.8748 12.4513 39.824 12.4619 39.7769 12.4825C39.7299 12.5031 39.6876 12.5334 39.6528 12.5713C39.6179 12.6092 39.5913 12.654 39.5747 12.7028C39.558 12.7516 39.5516 12.8034 39.5558 12.8548V14.9232H37.1798V13.1341C37.1798 12.255 37.2827 10.8899 38.9593 10.8899H40.9547C42.6313 10.8899 42.7341 12.255 42.7341 13.1341V15.1404C42.7645 15.3654 42.7439 15.5944 42.6741 15.8103C42.6042 16.0262 42.4868 16.2235 42.3307 16.3875C42.1745 16.5515 41.9835 16.6779 41.772 16.7574C41.5605 16.837 41.3339 16.8675 41.109 16.8468V16.9709C41.3357 16.9416 41.5661 16.9663 41.7816 17.0429C41.9971 17.1195 42.1917 17.2458 42.3498 17.4118C42.5078 17.5778 42.625 17.7788 42.6917 17.9986C42.7585 18.2184 42.773 18.4508 42.7341 18.6773V21.2007C42.7341 22.0798 42.6313 23.4449 40.9547 23.4449H38.9078C37.2313 23.4449 37.1284 22.0798 37.1284 21.2007V19.0496H39.5353Z" fill="white"/>
<path d="M44.2661 10.8899H49.8204V23.4449H47.5781V12.4515H46.4981V23.4449H44.2661V10.8899Z" fill="white"/>
<path d="M51.5796 23.4449H53.9762V19.1737H55.3442C57.031 19.1737 57.2984 17.8189 57.2984 16.9295V13.1341C57.2984 12.255 57.031 10.8899 55.3442 10.8899H51.5796V23.4449ZM53.9762 17.7982V12.4515H54.6036C54.871 12.4515 55.0562 12.679 55.0562 13.072V17.2088C55.0562 17.6017 54.871 17.8396 54.6036 17.8396L53.9762 17.7982Z" fill="white"/>
<path d="M71.74 10.8899H74.8669V23.4449H72.46V15.5747H72.3777L71.1434 23.4449H69.22L67.9857 15.5747H67.9034V23.4449H65.4966V10.8899H68.6132L70.1766 19.7115L71.74 10.8899Z" fill="white"/>
<path d="M19.7659 12.162C19.7499 13.3122 19.6259 14.4584 19.3956 15.5851C19.4423 13.9545 19.3042 12.3238 18.9841 10.7245C18.5696 8.89946 17.9195 7.13675 17.0504 5.48117C16.1895 7.13353 15.5497 8.89311 15.1476 10.7141C14.8327 12.3424 14.6845 13.9989 14.7053 15.6575C14.4435 14.0862 14.3367 12.4927 14.3864 10.9003C14.4707 9.43967 14.7016 7.99135 15.0756 6.57741C15.5547 4.91573 16.2171 3.31313 17.0504 1.79948C17.9006 3.27107 18.5706 4.84063 19.0459 6.47399C19.5473 8.32719 19.7897 10.2416 19.7659 12.162ZM17.0607 21.9143C16.4041 20.634 16.052 19.218 16.0321 17.7776C16.0347 16.3515 16.388 14.9481 17.0607 13.6926C17.6665 14.9083 18 16.2426 18.0379 17.6018C18.0641 19.1004 17.7101 20.5811 17.0093 21.904L17.0607 21.9143ZM19.9304 6.49467C19.3379 4.17613 18.3495 1.97861 17.0093 0C15.8538 1.75795 14.9469 3.66877 14.3144 5.67767C13.543 8.33075 13.3121 11.1131 13.6356 13.8581C13.8839 15.6551 14.3466 17.4156 15.0139 19.1014C15.5589 20.3867 16.2491 21.6047 17.071 22.7313C18.825 20.1954 19.9597 17.2794 20.383 14.22C20.7752 11.6438 20.6351 9.01402 19.9716 6.49467" fill="white"/>
<path d="M12.4118 23.4448V27.3954C13.0712 26.7342 13.9645 26.3629 14.8958 26.3629C15.8271 26.3629 16.7204 26.7342 17.3798 27.3954C17.7073 27.7206 17.9673 28.1078 18.1447 28.5348C18.3222 28.9618 18.4136 29.4199 18.4136 29.8826C18.4136 30.3454 18.3222 30.8035 18.1447 31.2305C17.9673 31.6574 17.7073 32.0447 17.3798 32.3698C16.0614 33.6891 14.277 34.4297 12.4169 34.4297C10.5569 34.4297 8.7725 33.6891 7.45408 32.3698C6.3037 31.2198 5.58807 29.7025 5.43037 28.0792C5.27267 26.4558 5.68277 24.828 6.59008 23.4759C6.84089 23.1014 7.13051 22.7547 7.45408 22.4417C8.10551 21.7844 8.87985 21.2633 9.7325 20.9083C10.5851 20.5533 11.4992 20.3715 12.4221 20.3733V10.9519C10.358 10.9576 8.32764 11.4789 6.51357 12.469C4.6995 13.4591 3.15858 14.8869 2.02935 16.6242C0.900111 18.3614 0.217956 20.3536 0.0442097 22.4216C-0.129537 24.4896 0.210571 26.5686 1.03396 28.4717C1.85735 30.3748 3.1382 32.0423 4.76137 33.3244C6.38454 34.6064 8.29914 35.4628 10.333 35.8165C12.367 36.1702 14.4564 36.0102 16.4136 35.3508C18.3707 34.6914 20.1342 33.5534 21.5455 32.0389V23.4448H12.4118Z" fill="white"/>
<path d="M72.6242 33.0318C72.6242 34.2211 72.079 34.4383 70.7008 34.4383H69.4356V28.9882H70.7008V31.0565H70.9168C72.1613 31.0565 72.6242 31.3564 72.6242 32.4423V33.0318ZM62.0505 30.012H61.0939V34.4383H59.8802V30.012H58.8516V28.9778H62.0505V30.012ZM52.2996 32.494C52.2996 33.6006 51.7442 33.9005 50.4893 33.9005V34.4383H49.2653V33.9005C48.0105 33.9005 47.4448 33.6006 47.4448 32.494V30.7876C47.4448 29.6811 47.9899 29.3915 49.2653 29.3915V28.9882H50.4893V29.3915C51.7648 29.3915 52.2996 29.6811 52.2996 30.7876V32.494ZM40.8208 30.012H39.0825V31.0462H40.6356V32.0804H39.0825V33.3628H40.8208V34.3969H37.735V28.9778H40.8208V30.012ZM30.3088 34.4383H29.0436V32.0494H28.3956V34.4383H27.1202V28.9882H28.3956V31.0565H29.0436V28.9882H30.3088V34.4383ZM74.8665 27.623H24.8882V35.9999H74.8665V27.623ZM48.679 30.7256V32.4734C48.679 32.794 48.7819 32.8664 49.0596 32.8664H49.2653V30.3533H49.0596C48.7819 30.3533 48.679 30.436 48.679 30.7566V30.7256ZM70.9888 32.0494H70.7008V33.4765H70.9888C71.2665 33.4765 71.3488 33.4041 71.3488 33.0939V32.432C71.3488 32.1217 71.2665 32.0494 70.9888 32.0494ZM50.6848 30.3533H50.4893V32.8974H50.6848C50.9728 32.8974 51.0756 32.8146 51.0756 32.494V30.7463C51.0756 30.4257 50.9728 30.3533 50.6848 30.3533Z" fill="white"/>
</svg>
